<svg width="16" height="16" viewBox="0 0 16 16" fill="none" xmlns="http://www.w3.org/2000/svg">
<path d="M14.0373 12.0102L14.0369 11.9991C14.0126 11.5 13.5634 10.9107 13.4263 10.7419L13.424 10.7392C13.2473 10.525 13.0376 10.1799 13.0249 10.0461C13.0285 9.93156 13.1951 9.60581 13.3726 9.36781C13.4987 9.19881 13.9091 8.608 13.8968 8.10109C13.8844 7.59519 13.428 7.01153 13.2834 6.83913C13.0878 6.59766 12.8988 6.26384 12.8936 6.15084L12.8932 6.13975C12.8932 6.13934 12.8918 6.09994 12.9253 6.00741C13.2426 5.12956 13.2805 4.3275 13.038 3.62347C12.2914 1.45616 10.2668 0 8 0C5.73322 0 3.70859 1.45616 2.96197 3.62344C2.71947 4.32744 2.75738 5.1295 3.07469 6.00731C3.10812 6.09987 3.10681 6.13931 3.10681 6.13969L3.10641 6.15059C3.10131 6.26266 2.91187 6.59694 2.71634 6.83944C2.57141 7.01228 2.11563 7.59547 2.10328 8.10109C2.09091 8.60797 2.50134 9.19881 2.62778 9.36828C2.80494 9.60584 2.97153 9.93156 2.97513 10.046C2.96325 10.1697 2.77569 10.496 2.57603 10.7392L2.57375 10.7419C2.43666 10.9107 1.98744 11.5 1.96309 11.9991L1.96269 12.0102C1.95447 12.339 2.13103 12.7117 2.28772 12.9757C1.75425 13.6874 1.4375 14.5727 1.4375 15.5312V16H14.5625V15.5312C14.5625 14.5727 14.2458 13.6874 13.7123 12.9756C13.869 12.7117 14.0456 12.339 14.0373 12.0102ZM4.25 15.0625H2.40775C2.56509 13.946 3.27603 13.0072 4.25 12.5388V15.0625ZM10.8125 15.0625H5.1875V14.0938H10.8125V15.0625ZM10.8125 13.1562H5.1875V12.2526C5.34063 12.2304 5.49713 12.2188 5.65625 12.2188H7.0625V11.1638C7.36516 11.2417 7.67797 11.2815 7.99622 11.2814C8.33425 11.2814 8.64419 11.2391 8.9375 11.1614V12.2188H10.3438C10.5029 12.2188 10.6594 12.2304 10.8125 12.2526V13.1562ZM6.125 5.65625C6.89087 5.65625 7.57203 5.28694 8 4.71712C8.42797 5.28694 9.10913 5.65625 9.875 5.65625H10.8125V7.36963C10.8125 8.94294 9.61216 10.3433 8.0085 10.3433C6.46872 10.3432 5.1875 9.10363 5.1875 7.53125V5.65625H6.125ZM5.24687 4.71875C5.52859 3.44578 6.77087 2.78331 8 2.78331C9.22913 2.78331 10.4714 3.44575 10.7531 4.71875H9.875C9.09959 4.71875 8.46875 4.08791 8.46875 3.3125H7.53125C7.53125 4.08791 6.90041 4.71875 6.125 4.71875H5.24687ZM10.3438 11.2812H9.875V10.7625C10.9894 10.0878 11.75 8.80525 11.75 7.36963V5.27644C11.75 3.24072 10.049 1.84584 8 1.84584C5.9615 1.84584 4.25 3.23084 4.25 5.27644V7.53125C4.25 8.91916 5.00522 10.13 6.125 10.7791V11.2812H5.65625C4.6365 11.2812 3.70016 11.6477 2.97 12.2566C2.92781 12.1631 2.90103 12.0838 2.89987 12.0387C2.91147 11.9143 3.09978 11.5825 3.3005 11.3341C3.43984 11.165 3.88759 10.5844 3.91194 10.0853L3.91234 10.0742C3.92481 9.57528 3.50659 8.97756 3.37884 8.80722C3.21988 8.59412 3.03744 8.24925 3.04047 8.124C3.04422 8.011 3.23703 7.67803 3.43681 7.43928L3.44191 7.43313C3.57938 7.26394 4.02766 6.67509 4.04344 6.18003C4.04994 6.0295 4.02144 5.86872 3.95634 5.68866C3.71369 5.01731 3.67734 4.42519 3.84834 3.92878C4.46472 2.13959 6.13316 0.9375 8 0.9375C9.86684 0.9375 11.5353 2.13959 12.1517 3.92875C12.3227 4.42516 12.2863 5.01728 12.0436 5.68866C11.9786 5.86869 11.9501 6.02947 11.9566 6.18C11.9723 6.67503 12.4206 7.26391 12.5581 7.43309L12.5632 7.43925C12.7595 7.67256 12.9558 8.01175 12.9595 8.12394C12.9623 8.23688 12.7977 8.56922 12.6219 8.80625C12.4934 8.97756 12.0752 9.57525 12.0877 10.0742L12.0881 10.0853C12.1124 10.5847 12.5607 11.1657 12.6997 11.3344C12.8774 11.5534 13.0878 11.9042 13.1002 12.0387C13.099 12.0842 13.0725 12.1633 13.0302 12.2568C12.3 11.6477 11.3636 11.2812 10.3438 11.2812ZM11.75 15.0625C11.75 14.1783 11.75 13.4199 11.75 12.5388C12.724 13.0072 13.4349 13.946 13.5922 15.0625H11.75Z" fill="#A90061"/>
</svg>
